<?xml version="1.0" standalone="no"?><!DOCTYPE svg PUBLIC "-//W3C//DTD SVG 1.1//EN" "http://www.w3.org/Graphics/SVG/1.1/DTD/svg11.dtd"><svg t="1496388031107" class="icon" style="" viewBox="0 0 1024 1024" version="1.1" xmlns="http://www.w3.org/2000/svg" p-id="1041" xmlns:xlink="http://www.w3.org/1999/xlink" width="32" height="32"><defs><style type="text/css"></style></defs><path d="M848.332882 170.523307c18.94155-31.517547 19.881275-69.725977 2.509962-102.205407-17.369299-32.476409-49.112461-51.867174-84.912656-51.867174L151.485065 16.450726c-35.798181 0-67.54235 19.390765-84.912656 51.870196C49.20311 100.798338 50.141827 139.006767 69.084385 170.524315c0.760442 1.267067 1.608511 2.473702 2.536149 3.611847L273.476063 421.976771c12.617292 15.487835 19.566019 35.189827 19.566019 55.472979l0 337.027856c0 17.154764 13.401907 31.061282 29.935224 31.061282 16.532309 0 29.934217-13.907526 29.934217-31.061282L352.911523 477.450757c0-34.941047-11.970665-68.878915-33.705203-95.568915L118.94218 135.995216c-6.337352-11.751094-6.378647-25.642504-0.01813-37.5336 6.659658-12.456139 18.833779-19.889333 32.560008-19.889333l614.445123 0c13.728243 0 25.902364 7.433194 32.560008 19.889333 6.360517 11.891096 6.319222 25.783513-0.017123 37.5336L598.205911 381.881842c-21.734538 26.69-33.705203 60.629883-33.705203 95.568915L564.500708 992.600296c0 17.152749 13.401907 31.058261 29.935224 31.058261s29.935224-13.905511 29.935224-31.058261L624.371156 477.450757c0-20.283151 6.94772-39.983129 19.566019-55.472979l201.855529-247.840609C846.722357 172.99701 847.571433 171.78836 848.332882 170.523307zM697.723081 476.021529c0 17.154764 13.403922 31.061282 29.935224 31.061282l212.224733 0c16.532309 0 29.935224-13.907526 29.935224-31.061282 0-17.152749-13.403922-31.057253-29.935224-31.057253L727.658305 444.964276C711.125995 444.964276 697.723081 458.86878 697.723081 476.021529zM939.883038 786.879104 727.658305 786.879104c-16.532309 0-29.935224 13.905511-29.935224 31.060275 0 17.152749 13.403922 31.058261 29.935224 31.058261l212.224733 0c16.532309 0 29.935224-13.905511 29.935224-31.058261C969.819269 800.784615 956.415347 786.879104 939.883038 786.879104zM939.883038 615.920682 727.658305 615.920682c-16.532309 0-29.935224 13.908533-29.935224 31.061282 0 17.154764 13.403922 31.058261 29.935224 31.058261l212.224733 0c16.532309 0 29.935224-13.904504 29.935224-31.058261C969.819269 629.829215 956.415347 615.920682 939.883038 615.920682z" p-id="1042"></path></svg>