<?xml version="1.0" standalone="no"?><!DOCTYPE svg PUBLIC "-//W3C//DTD SVG 1.1//EN" "http://www.w3.org/Graphics/SVG/1.1/DTD/svg11.dtd"><svg t="1495797996148" class="icon" style="" viewBox="0 0 1024 1024" version="1.1" xmlns="http://www.w3.org/2000/svg" p-id="2648" xmlns:xlink="http://www.w3.org/1999/xlink" width="50" height="50"><defs><style type="text/css"></style></defs><path d="M937.984 237.568c16.384-69.632 32.768-147.456 40.96-237.568-176.128 24.576-315.392 57.344-430.08 98.304l-12.288 118.784-94.208-73.728C20.48 344.064 106.496 655.36 135.168 733.184c98.304-200.704 290.816-466.944 667.648-614.4C303.104 442.368 98.304 864.256 53.248 970.752c0 4.096 0 8.192 0 12.288-4.096 0-4.096 0-4.096 0s0 0 4.096 4.096c0 4.096 0 4.096 4.096 8.192 0 0 4.096 0 4.096 0 28.672 16.384 94.208 45.056 212.992 8.192 36.864-12.288 90.112 12.288 151.552 8.192 32.768-4.096 114.688-24.576 167.936-36.864-49.152 12.288-131.072 20.48-180.224-12.288-45.056-32.768-229.376-4.096-319.488 8.192 61.44-49.152 172.032-163.84 172.032-163.84s348.16 81.92 561.152-299.008l-155.648-57.344 196.608-28.672c12.288-24.576 20.48-53.248 32.768-81.92-40.96-24.576-147.456-86.016-151.552-94.208C749.568 249.856 880.64 241.664 937.984 237.568zM593.92 978.944c28.672-8.192 45.056-12.288 45.056-12.288S622.592 970.752 593.92 978.944z" p-id="2649" fill="#666"></path></svg>