<?xml version="1.0" standalone="no"?><!DOCTYPE svg PUBLIC "-//W3C//DTD SVG 1.1//EN" "http://www.w3.org/Graphics/SVG/1.1/DTD/svg11.dtd"><svg t="1495780249619" class="icon" style="" viewBox="0 0 1024 1024" version="1.1" xmlns="http://www.w3.org/2000/svg" p-id="1193" xmlns:xlink="http://www.w3.org/1999/xlink" width="20" height="20"><defs><style type="text/css"></style></defs><path d="M864.370836 884.784308c-5.227267 0-10.423834-2.216481-14.064911-6.52153L644.666984 635.206066c-6.185122-7.308453-5.735872-18.137079 1.033583-24.90625 22.970095-22.980387 41.300325-49.607838 54.484132-79.145571 15.116914-33.882692 22.785892-70.032006 22.785892-107.447151 0-145.538701-118.40866-263.942391-263.95347-263.942391S195.063652 278.168394 195.063652 423.707095c0 145.536654 118.40866 263.940344 263.95347 263.940344 36.87741 0 72.541128-7.450692 106.006692-22.146393 9.322711-4.080945 20.173282 0.146333 24.259515 9.455349 4.090327 9.311063-0.144292 20.172435-9.452676 24.260543-38.158643 16.756639-78.807095 25.252127-120.813531 25.252127-165.84908 0-300.776642-134.921899-300.776642-300.761971 0-165.842119 134.927562-300.764018 300.776642-300.764018s300.776642 134.921899 300.776642 300.764018c0 42.617633-8.742472 83.817987-25.985905 122.452913-12.716137 28.497031-29.631075 54.609759-50.393806 77.830623l195.004297 230.489488c6.566831 7.762801 5.60079 19.377326-2.162337 25.948999C872.795046 883.350656 868.573731 884.784308 864.370836 884.784308z" p-id="1194" fill="#666"></path></svg>